# xmcd CD database file
#
# Track frame offsets:
#        150
#        16978
#        31433
#        45675
#        63873
#        78523
#        88927
#        106709
#        122683
#        139164
#        154074
#        172136
#        185548
#        204299
#
# Disc length: 2842 seconds
#
# Revision: 0
# Processed by: cddbd v1.5.2PL0 Copyright (c) Steve Scherf et al.
# Submitted via: CUERipper 2.1.5
#
DISCID=b70b180e
DTITLE=Third Coast - Little Rock
DYEAR=2009
DGENRE=Country
TTITLE0=Heart like a hurricane
TTITLE1=I just might be
TTITLE2=This nightlife
TTITLE3=Little rock
TTITLE4=Texas when I die
TTITLE5=Cajun fiddle
TTITLE6=Old country
TTITLE7=Your man
TTITLE8=Deeper than a holler
TTITLE9=How long
TTITLE10=Hard promises
TTITLE11=East-bound and down
TTITLE12=Unchained melody
TTITLE13=Amapola
EXTD=
EXTT0=
EXTT1=
EXTT2=
EXTT3=
EXTT4=
EXTT5=
EXTT6=
EXTT7=
EXTT8=
EXTT9=
EXTT10=
EXTT11=
EXTT12=
EXTT13=
PLAYORDER=
